<svg version="1.1" id="Layer_1" xmlns="http://www.w3.org/2000/svg" xmlns:xlink="http://www.w3.org/1999/xlink" x="0px" y="0px"
	 width="100%" viewBox="0 0 496 496" enable-background="new 0 0 496 496" xml:space="preserve">
<path fill="#FFFFFF" opacity="1.000000" stroke="#FFFFFF" 
	d="
M193.644241,196.302933 
	C190.029602,196.272400 186.864120,196.257416 183.699310,196.203552 
	C181.477448,196.165741 179.362717,195.650314 177.669312,194.154724 
	C176.002563,192.682678 173.162048,191.459869 174.210785,188.761032 
	C175.178650,186.270248 177.874313,187.306641 179.994659,187.373566 
	C187.985245,187.625778 195.981812,187.707794 203.969452,188.023102 
	C207.371597,188.157410 208.453247,185.908798 209.722855,183.461884 
	C220.536362,162.621140 230.712265,141.446701 242.250122,120.986320 
	C244.451675,117.082230 247.009750,113.357697 249.652115,109.731621 
	C251.265442,107.517693 253.023346,104.508667 256.400604,105.776604 
	C260.097656,107.164597 262.939636,109.791023 263.376007,114.122841 
	C263.917572,119.499039 262.827332,124.776489 261.833801,129.968918 
	C260.116974,138.941116 257.750885,147.786865 255.828979,156.722610 
	C253.704559,166.600021 247.458878,174.373428 242.738205,182.925751 
	C241.694778,184.816086 240.024139,186.432770 239.303024,188.415741 
	C236.413971,196.360306 230.679413,198.707397 222.857697,197.261078 
	C217.039200,196.185165 213.928879,198.785004 211.329742,203.983200 
	C205.675781,215.290939 199.506241,226.363220 192.304688,236.797562 
	C182.802017,250.565964 174.022705,250.394104 164.620819,236.325562 
	C154.849640,221.704453 155.416748,193.311264 165.907150,179.296768 
	C174.537064,167.767776 186.841263,167.048355 198.621857,171.511337 
	C199.387009,171.801193 200.144470,172.258530 200.742508,172.813583 
	C202.278931,174.239563 204.785172,175.623138 203.898590,177.936813 
	C202.831665,180.720993 200.232010,179.168304 198.233002,178.731064 
	C183.154617,175.432938 172.455597,182.417404 168.705154,198.736328 
	C166.092896,210.102768 166.423889,221.529144 170.635834,232.616028 
	C173.029526,238.916809 175.920258,239.605225 180.101883,234.421799 
	C189.131516,223.228897 195.407745,210.339615 202.652573,197.550064 
	C199.619217,196.128159 196.822113,196.409607 193.644241,196.302933 
M238.625763,183.150635 
	C243.014206,164.777069 247.402649,146.403519 251.791077,128.029953 
	C240.173294,147.585236 230.055450,167.706863 219.524338,188.711426 
	C224.296234,188.711426 228.093613,188.489685 231.852783,188.773605 
	C235.629913,189.058899 237.979126,187.926086 238.625763,183.150635 
z"/>
<path fill="#FFFFFF" opacity="1.000000" stroke="none" 
	d="
M302.275238,201.275024 
	C296.471558,206.991852 290.921204,212.462021 285.548279,217.757339 
	C285.966278,218.688538 286.051270,219.195618 286.230286,219.231323 
	C298.347412,221.648865 303.229218,230.980362 307.266541,241.147568 
	C308.616974,244.548294 310.065826,247.909927 311.468475,251.289917 
	C313.275818,255.645111 315.124420,259.932587 320.375183,261.257050 
	C321.116211,261.443939 321.744720,262.201874 321.631042,263.192078 
	C315.885925,266.130005 309.260498,264.034088 305.189423,257.736511 
	C301.460571,251.968323 299.598389,245.310791 296.734497,239.126862 
	C295.127594,235.657120 293.640167,232.089615 291.628754,228.858856 
	C287.928589,222.915558 281.544952,222.556442 276.441071,227.303970 
	C271.905060,231.523315 269.161743,236.127930 270.163788,242.597168 
	C270.592163,245.362732 270.272491,248.248093 270.249664,251.078674 
	C270.214783,255.408905 270.085938,259.753571 274.780182,264.014191 
	C267.575500,263.995270 261.661316,265.693115 255.636841,261.630707 
	C259.895966,257.229706 259.772339,252.072525 259.733429,246.880264 
	C259.654816,236.389969 259.998871,225.887253 259.596039,215.411667 
	C259.297272,207.642349 264.690948,203.849289 268.575287,198.898270 
	C269.049347,199.030334 269.523376,199.162399 269.997437,199.294464 
	C269.997437,207.320007 269.997437,215.345566 269.997437,224.392792 
	C275.425232,220.265320 278.770599,215.730148 282.692902,211.802765 
	C287.751495,206.737640 292.694061,201.556351 297.669525,196.408615 
	C300.114075,193.879395 302.477661,191.292801 301.582397,186.939331 
	C307.130676,187.002762 312.454895,185.385590 318.481659,190.348312 
	C311.105438,191.975174 306.900726,196.606293 302.275238,201.275024 
z"/>
<path fill="#FFFFFF" opacity="1.000000" stroke="none" 
	d="
M213.907074,249.771942 
	C212.912079,250.739044 212.068100,251.399017 211.148102,250.359512 
	C210.327698,249.432495 210.846024,248.467255 211.414688,247.626419 
	C213.093613,245.143982 214.790955,242.673477 216.514313,240.221664 
	C235.856674,212.703476 255.201401,185.186966 274.563049,157.682358 
	C275.567719,156.255157 276.263672,154.347992 279.975037,154.499344 
	C275.397705,163.476318 269.243561,170.634430 264.034760,178.349304 
	C258.631378,186.352371 252.971786,194.182297 247.436783,202.096695 
	C241.901794,210.011108 236.401672,217.949982 230.850555,225.853043 
	C225.300140,233.755157 219.705490,241.626190 213.907074,249.771942 
z"/>
</svg>